<?xml version="1.0" encoding="UTF-8"?>
<svg version="1.1" viewBox="0 0 1024 1024" width="1280" height="1280" xmlns="http://www.w3.org/2000/svg">
<path transform="translate(0)" d="m0 0h1024v1024h-1024z" fill="#FDFDFD"/>
<path transform="translate(348,308)" d="m0 0 9 1 17 4 20 7 17 8 17 11 13 10 13 12 9 9 9 11 11 14 10 15 12 20 13 24 15 31 18 41 15 35 17 37 12 24 14 24 11 16 10 13 12 13 8 8 13 10 9 6-2 1-23-11-15-9-19-14-12-11-8-7-16-17-11-14-12-16-13-20-15-26-17-33-13-27-15-33-14-30-11-23-12-22-10-17-13-19-9-11-11-12-11-10-15-10-16-8-11-4z" fill="#009245"/>
<path transform="translate(456,458)" d="m0 0 3 4 15 32 12 26-1 7-15 31-13 28-13 27-13 28-1 2h-57l5-13 13-28 12-27 18-40 13-29 18-40z" fill="#009245"/>
</svg>
